<?xml version="1.0" standalone="no"?>
<!DOCTYPE svg PUBLIC "-//W3C//DTD SVG 20010904//EN"
 "http://www.w3.org/TR/2001/REC-SVG-20010904/DTD/svg10.dtd">
<svg version="1.0" xmlns="http://www.w3.org/2000/svg"
 width="300.000000pt" height="284.000000pt" viewBox="0 0 300.000000 284.000000"
 preserveAspectRatio="xMidYMid meet">
<metadata>
Created by potrace 1.10, written by Peter Selinger 2001-2011
</metadata>
<g transform="translate(0.000000,284.000000) scale(0.100000,-0.100000)"
fill="#000000" stroke="none">
<path d="M1032 2612 c-36 -110 -39 -132 -17 -132 13 0 14 -10 9 -63 -6 -60 -4
-69 40 -170 25 -58 46 -113 46 -121 0 -16 -44 -52 -47 -39 -1 5 -24 82 -51
173 -61 202 -62 206 -39 202 9 -2 17 1 17 7 0 14 -120 174 -126 168 -3 -3 20
-37 50 -77 31 -40 56 -74 56 -76 0 -12 -13 2 -56 61 -55 74 -62 71 -63 -27 -1
-49 1 -56 17 -51 17 4 45 -84 128 -404 6 -20 2 -23 -23 -23 -45 0 -62 28 -93
149 -28 112 -56 163 -116 210 l-25 20 22 12 c19 10 21 9 15 -6 -4 -12 6 -31
34 -61 48 -52 53 -63 80 -174 28 -111 44 -139 78 -140 18 0 15 23 -19 150 -67
248 -69 252 -90 247 -18 -5 -19 1 -19 72 0 43 3 81 7 84 10 10 13 56 4 62 -12
7 -21 -58 -21 -159 0 -79 2 -87 15 -76 10 8 19 9 24 4 13 -14 103 -365 96
-372 -15 -15 -44 42 -60 115 -21 98 -43 149 -85 197 -24 27 -30 40 -21 45 8 5
-13 27 -61 63 -91 69 -127 92 -134 86 -2 -3 19 -53 47 -112 47 -98 69 -132 69
-107 0 5 6 11 13 14 6 2 4 3 -6 1 -13 -2 -27 16 -53 68 -50 99 -57 118 -39
111 8 -3 13 -9 10 -13 -3 -4 11 -41 31 -81 21 -42 39 -67 43 -61 8 13 70 -46
90 -85 6 -13 18 -68 27 -124 24 -163 47 -197 137 -201 48 -2 58 -10 33 -25 -8
-4 -40 -66 -72 -137 -69 -151 -74 -155 -264 -240 -141 -63 -189 -94 -232 -149
-36 -45 -74 -143 -84 -215 -6 -47 -5 -50 24 -71 51 -36 154 -80 202 -86 25 -3
38 -3 30 1 -37 14 -46 17 -58 20 -26 5 -25 14 1 14 15 0 27 -5 27 -11 0 -12
228 -11 245 1 6 4 17 8 25 8 41 2 113 27 199 70 53 26 98 48 101 50 8 3 40
-64 40 -83 0 -10 -11 -15 -32 -15 -34 -1 -112 -32 -103 -42 3 -3 -1 -11 -9
-17 -12 -10 -19 -9 -37 7 -32 31 -64 34 -145 16 -63 -14 -78 -21 -100 -49 -25
-34 -61 -39 -49 -7 5 13 -8 14 -102 8 -206 -14 -217 -32 -158 -258 34 -130 68
-181 113 -169 33 9 72 64 72 102 0 34 20 55 60 64 28 6 37 1 85 -44 44 -42 60
-51 90 -51 68 0 124 21 161 60 l36 38 35 -24 c32 -22 42 -23 107 -17 65 6 108
22 129 48 8 10 23 -8 15 -19 -2 -3 5 -11 16 -19 21 -15 25 -82 6 -101 -9 -8
-11 -5 -8 13 5 35 -27 52 -72 38 -29 -10 -36 -19 -46 -57 l-12 -45 -1 36 c-2
71 -77 96 -95 32 -12 -38 -36 -53 -36 -22 0 50 -30 68 -86 53 -36 -9 -38 -68
-9 -197 43 -187 50 -198 153 -205 59 -4 75 -1 120 22 28 14 56 26 62 26 6 0
36 -12 66 -26 48 -22 63 -25 107 -19 61 9 80 9 336 2 132 -4 201 -2 215 5 36
19 65 57 77 101 13 49 7 210 -9 230 -8 10 -5 20 11 40 l22 28 80 -12 c44 -6
115 -12 157 -14 57 -2 87 -8 113 -24 74 -44 138 -12 150 74 2 11 15 66 29 122
32 124 32 134 4 160 -32 29 -59 35 -105 25 -34 -8 -46 -5 -89 19 -27 16 -59
29 -71 29 -13 0 -23 2 -23 4 0 2 15 36 34 77 33 72 116 312 116 336 0 7 -35
42 -77 79 -214 182 -456 296 -759 357 -106 22 -121 23 -182 10 -37 -7 -102
-17 -145 -23 -44 -5 -92 -18 -110 -29 -73 -44 -106 -32 -107 37 0 22 -9 42
-26 59 l-25 25 20 15 c30 21 51 66 51 110 0 29 -15 65 -57 138 -45 78 -58 111
-61 153 -5 53 -4 54 17 43 11 -7 21 -10 21 -8 0 2 -11 59 -25 127 -14 68 -25
124 -25 126 0 2 -4 4 -8 4 -4 0 -22 -44 -40 -98z m64 -41 c17 -86 18 -98 4
-97 -11 1 -16 -11 -18 -42 -3 -44 9 -76 83 -212 48 -90 47 -127 -5 -184 -43
-47 -48 -56 -26 -56 20 0 46 -39 46 -68 0 -13 7 -36 15 -52 14 -27 17 -28 47
-18 18 6 47 20 63 30 17 10 37 18 45 18 19 0 -95 -56 -132 -66 -24 -5 -28 -3
-28 14 0 12 -4 24 -10 27 -5 3 -10 20 -10 36 0 48 -16 69 -54 69 -49 0 -50 10
-2 42 94 62 97 109 15 250 -37 65 -54 105 -57 139 -5 55 4 103 18 94 13 -8 13
-4 -9 93 -10 45 -15 82 -11 82 3 0 15 -44 26 -99z m-54 -5 c-19 -62 -19 -66
-3 -61 15 4 16 0 12 -32 -5 -33 -6 -35 -9 -10 -2 16 -9 27 -18 27 -10 0 -13 6
-10 18 3 9 12 43 21 75 9 32 19 56 22 54 2 -3 -4 -35 -15 -71z m25 -33 c-3
-10 -5 -4 -5 12 0 17 2 24 5 18 2 -7 2 -21 0 -30z m-184 -36 c-20 -12 -21 -8
-15 32 l5 34 12 -29 c10 -24 9 -31 -2 -37z m-160 -16 c26 -19 45 -36 42 -39
-4 -5 -115 77 -115 85 0 5 17 -5 73 -46z m220 -12 c-4 -21 112 -392 123 -396
16 -5 54 36 54 60 0 12 -20 65 -45 117 -34 72 -45 106 -44 140 l1 45 8 -50 c4
-27 26 -92 49 -143 50 -109 50 -137 2 -169 -19 -13 -36 -22 -38 -20 -1 2 -29
91 -61 198 -33 107 -62 205 -66 218 -6 17 -5 22 5 19 8 -3 13 -11 12 -19z
m-225 -50 c-3 -8 -7 -3 -11 10 -4 17 -3 21 5 13 5 -5 8 -16 6 -23z m452 -291
c0 -44 -18 -32 -22 15 -3 23 -8 51 -12 62 -4 11 2 4 13 -15 11 -19 20 -47 21
-62z m-173 20 c-3 -7 -5 -2 -5 12 0 14 2 19 5 13 2 -7 2 -19 0 -25z m-130 0
c-3 -8 -6 -5 -6 6 -1 11 2 17 5 13 3 -3 4 -12 1 -19z m43 -122 c-1 -20 -1 -20
-15 -2 -8 10 -12 22 -10 27 3 4 1 10 -5 14 -5 3 -10 18 -10 33 1 25 2 24 20
-12 11 -22 20 -49 20 -60z m120 34 c0 -13 -1 -13 -10 0 -5 8 -10 22 -10 30 0
13 1 13 10 0 5 -8 10 -22 10 -30z m110 0 c-70 -59 -132 -74 -195 -46 -30 13
-29 13 15 9 56 -6 116 9 161 41 48 34 61 31 19 -4z m6 -125 c4 -8 3 -27 -1
-43 -6 -25 -8 -25 -19 -9 -16 20 -56 23 -56 3 0 -9 18 -17 47 -22 35 -7 49
-14 51 -28 4 -17 -1 -18 -32 -13 -47 7 -47 -9 0 -17 19 -4 38 -14 41 -22 8
-22 1 -25 -35 -15 -18 5 -32 6 -32 1 0 -5 13 -11 29 -15 35 -7 54 -27 49 -51
-3 -18 -24 -17 -22 2 1 5 -13 9 -30 7 -28 -2 -29 -2 -6 5 20 6 22 9 9 14 -11
4 -33 -9 -67 -42 -27 -26 -65 -53 -83 -59 -32 -10 -62 -45 -132 -153 -38 -58
-8 -25 42 46 37 52 64 79 91 91 21 9 57 35 79 58 23 22 41 36 41 31 0 -22 -66
-87 -108 -107 -32 -16 -62 -43 -99 -92 -30 -38 -58 -69 -64 -67 -6 1 -8 -2 -5
-7 3 -5 -32 -59 -79 -120 -46 -61 -81 -111 -77 -111 19 0 127 98 178 161 l57
72 86 -6 c47 -4 97 -9 111 -13 24 -6 24 -5 -5 20 l-30 25 31 1 30 0 52 -167
c28 -92 49 -169 46 -172 -9 -9 -31 24 -48 72 -10 26 -22 47 -28 47 -5 0 -23
-9 -38 -20 -51 -36 -174 -89 -254 -110 -143 -36 -289 -22 -427 41 l-67 31 19
60 c25 85 76 164 134 211 28 22 105 67 173 100 171 85 181 95 256 252 68 143
66 141 149 144 25 1 40 -4 43 -14z m621 -30 c213 -46 387 -116 543 -217 89
-57 250 -186 250 -200 0 -4 -18 -61 -39 -126 -47 -143 -109 -290 -133 -317
-17 -18 -19 -18 -35 -3 -15 15 -13 20 16 56 17 22 31 44 31 49 0 5 7 18 15 29
15 18 15 18 6 -6 -20 -54 -24 -65 -27 -79 -1 -8 1 -10 6 -5 14 15 82 184 117
294 l34 105 -58 53 c-188 171 -466 305 -758 363 -109 22 -111 22 -220 4 -60
-10 -119 -15 -130 -12 -12 3 -3 5 20 6 22 1 67 8 100 15 88 20 133 19 262 -9z
m-120 -16 c-12 -7 -27 -7 -45 0 -25 9 -24 9 18 10 36 0 41 -2 27 -10z m-32
-40 c22 -11 30 -17 17 -15 -12 2 -20 0 -16 -5 3 -5 18 -9 33 -9 18 0 47 -15
78 -40 56 -44 91 -60 132 -60 15 0 36 -6 47 -14 17 -13 16 -14 -21 -14 -22 0
-47 -1 -55 -2 -8 -1 -26 2 -39 6 -17 5 -22 4 -17 -4 4 -6 30 -18 58 -27 28 -8
58 -21 67 -29 9 -8 36 -20 61 -26 51 -14 104 -39 97 -46 -3 -3 -20 2 -37 11
-18 9 -44 15 -58 12 -14 -3 -43 1 -65 9 -22 8 -42 12 -44 10 -10 -9 45 -36 61
-30 9 3 16 1 16 -5 0 -6 -5 -11 -11 -11 -20 0 -3 -24 22 -31 20 -6 18 -7 -13
-8 -24 -1 -50 8 -74 24 -20 14 -42 25 -48 24 -6 0 0 -8 14 -17 13 -9 35 -27
49 -39 24 -24 61 -31 61 -13 0 15 55 12 99 -6 22 -9 46 -14 53 -11 18 6 -51
47 -79 47 -33 0 -75 19 -68 30 8 14 71 13 98 -1 12 -7 37 -25 55 -40 57 -50
63 -31 9 25 -57 59 -75 70 -126 80 -19 3 -42 13 -52 22 -9 8 -30 19 -45 23
-23 7 -26 10 -12 15 9 4 35 -1 60 -12 93 -41 140 -34 56 9 -24 12 -54 30 -67
40 -12 10 -39 21 -60 25 -44 8 -86 29 -126 62 -16 14 -45 31 -64 39 -18 8 -32
16 -30 18 5 4 165 -30 254 -55 187 -52 387 -159 542 -288 l62 -52 -44 -128
c-24 -70 -57 -158 -74 -196 l-31 -68 -38 7 c-20 4 -43 8 -49 8 -7 0 -13 11
-13 24 0 14 4 21 10 18 6 -4 7 -11 4 -17 -5 -7 -2 -8 5 -3 9 5 10 10 2 18 -13
13 -15 41 -3 33 5 -3 9 1 9 9 0 8 -4 12 -9 9 -4 -3 -8 1 -8 8 0 10 -2 10 -9
-1 -5 -7 -6 -22 -4 -32 4 -12 0 -19 -10 -19 -17 0 -29 68 -12 73 6 3 6 9 -2
19 -7 8 -11 17 -8 20 3 3 -1 11 -10 18 -8 7 -15 18 -15 24 0 6 5 4 10 -4 9
-13 10 -13 11 0 0 8 6 0 13 -19 l12 -33 11 36 c12 40 8 49 -7 14 -7 -20 -9
-17 -9 17 -1 29 2 36 9 25 8 -13 11 -13 22 -1 10 10 10 12 1 7 -7 -4 -13 -5
-13 -2 0 2 -3 12 -6 20 -5 12 -2 15 12 10 18 -5 18 -5 2 9 -10 8 -18 19 -18
25 0 6 -7 9 -15 6 -11 -5 -15 1 -15 23 0 16 -5 34 -12 41 -9 9 -7 13 5 18 14
5 9 13 -23 44 -22 21 -40 44 -40 50 0 6 -5 8 -10 5 -6 -4 -9 -1 -8 7 2 7 -3
12 -9 10 -7 -1 -13 5 -13 14 0 8 -5 12 -11 8 -8 -4 -8 0 0 15 12 21 41 29 41
11 0 -5 -4 -10 -10 -10 -5 0 -10 -4 -10 -8 0 -4 9 -8 19 -8 11 0 17 4 15 8 -3
4 2 8 10 8 9 0 16 -4 16 -10 0 -5 7 -10 16 -10 8 0 21 -6 28 -13 11 -11 11
-16 1 -31 -7 -9 -15 -13 -17 -9 -3 4 -3 2 -2 -4 2 -7 -1 -13 -7 -13 -6 0 -7
-5 -3 -12 6 -9 9 -9 12 0 2 7 9 9 14 6 7 -4 8 -2 4 4 -3 6 0 14 7 19 8 4 17
15 20 23 4 12 6 11 6 -3 1 -10 6 -15 11 -12 6 3 13 -1 16 -9 3 -9 9 -14 14
-11 4 2 7 -10 8 -27 0 -20 -2 -27 -7 -19 -6 8 -12 3 -21 -19 -7 -17 -10 -33
-6 -37 3 -3 6 1 6 10 0 9 9 21 20 27 12 6 20 21 20 36 0 25 0 25 21 5 14 -13
19 -26 15 -39 -7 -21 6 -24 31 -9 7 5 21 -1 33 -13 17 -17 18 -21 5 -26 -12
-5 -13 -9 -4 -21 9 -10 9 -17 1 -25 -6 -6 -8 -18 -5 -27 3 -12 1 -11 -11 3 -9
11 -16 15 -16 9 0 -7 5 -15 10 -18 16 -10 12 -29 -10 -53 -23 -24 -26 -37 -7
-26 6 4 4 -2 -5 -13 -10 -11 -18 -27 -18 -37 0 -11 -4 -15 -12 -10 -10 6 -10
4 0 -8 14 -17 0 -34 -18 -23 -5 3 -10 -1 -10 -9 0 -9 5 -16 10 -16 15 0 12
-16 -6 -35 -10 -9 -13 -22 -9 -33 9 -22 61 88 115 245 l39 112 -62 49 c-142
113 -307 203 -470 257 -56 18 -115 36 -132 39 -28 6 -29 5 -11 -8 10 -9 43
-20 72 -26 30 -6 67 -22 82 -34 15 -12 42 -28 60 -36 30 -12 59 -45 54 -62 -1
-4 28 -36 63 -71 36 -36 65 -70 65 -76 0 -5 -8 -15 -17 -20 -10 -6 -13 -11 -7
-11 13 0 64 -99 64 -123 0 -25 -30 -20 -62 10 -29 28 -52 26 -24 -3 29 -28 55
-89 62 -145 4 -30 13 -62 22 -72 21 -23 7 -35 -17 -13 -11 10 -21 38 -25 68
-12 89 -64 177 -105 179 -9 0 3 7 27 16 43 15 44 15 74 -13 33 -31 33 -30 3
31 -27 55 -43 66 -85 59 -28 -4 -40 -1 -55 15 -21 24 -100 31 -93 9 3 -8 18
-12 41 -10 28 3 38 -1 47 -17 9 -18 17 -20 50 -15 26 4 45 2 55 -6 20 -17 19
-29 -2 -29 -10 0 -38 -5 -63 -12 -41 -10 -51 -9 -109 15 -62 25 -94 29 -52 6
12 -6 21 -16 21 -23 0 -7 14 -23 30 -35 17 -13 30 -32 30 -43 0 -11 7 -31 16
-44 10 -15 12 -25 5 -25 -6 0 -22 23 -36 50 -14 28 -29 50 -33 50 -4 0 -29 20
-57 45 -27 25 -57 47 -66 50 -10 3 -29 26 -44 50 -14 25 -30 45 -36 45 -5 0 2
-17 16 -37 14 -21 25 -45 25 -54 0 -9 12 -24 26 -34 14 -9 23 -22 20 -30 -3
-9 7 -18 30 -25 19 -7 42 -23 50 -36 17 -24 95 -85 127 -97 11 -4 20 -1 23 8
7 18 -14 47 -27 39 -11 -6 -16 7 -22 64 l-5 43 26 -17 c55 -34 83 -69 98 -122
12 -41 13 -56 4 -67 -10 -11 -6 -19 17 -39 l28 -25 -35 -1 c-47 0 -80 10 -80
24 -1 6 -7 25 -15 41 l-15 30 6 -41 c5 -41 5 -41 -25 -36 -19 2 -31 10 -31 19
0 8 -8 28 -17 44 -17 28 -10 57 7 29 14 -23 23 -4 10 20 -6 12 -14 19 -17 17
-3 -3 -23 7 -45 23 -22 16 -45 27 -52 24 -8 -3 -16 4 -19 15 -6 23 -44 41 -87
41 -20 0 -36 10 -55 32 -15 18 -35 33 -44 33 -8 0 -17 9 -19 20 -5 28 -31 83
-43 90 -7 5 -6 12 2 21 9 11 8 14 -4 14 -9 0 -19 10 -23 23 -4 12 -12 25 -18
29 -8 5 -7 11 1 19 10 10 14 7 22 -13 9 -24 30 -38 54 -38 7 1 0 8 -15 16 -16
8 -28 19 -28 24 0 4 -3 15 -6 24 -11 28 16 17 34 -14 9 -16 20 -30 25 -30 15
0 6 17 -28 54 -21 23 -35 49 -35 64 0 24 0 25 20 7 11 -10 23 -16 26 -12 3 3
-11 16 -30 30 -31 20 -34 26 -22 36 10 8 16 9 21 1 3 -5 11 -10 17 -10 7 0 6
6 -2 15 -7 8 -27 15 -45 15 -18 0 -44 9 -58 20 -30 24 -38 25 -31 5 5 -11 2
-13 -10 -9 -9 4 -16 1 -16 -6 0 -9 -10 -11 -30 -6 -16 3 -30 1 -30 -4 0 -6
-10 -6 -26 0 -35 14 -33 15 -55 -32 l-19 -43 5 40 c10 64 13 70 58 92 37 19
53 21 137 16 62 -4 109 -12 135 -24z m332 -25 c-3 -3 -12 -4 -19 -1 -8 3 -5 6
6 6 11 1 17 -2 13 -5z m-700 -20 c-3 -3 -12 -4 -19 -1 -8 3 -5 6 6 6 11 1 17
-2 13 -5z m20 -56 c0 -24 3 -71 6 -105 3 -35 2 -65 -3 -68 -5 -3 -11 -23 -15
-45 -10 -61 -29 -48 -54 35 -20 69 -20 77 -6 91 10 11 15 31 14 60 -2 24 -1
45 2 47 2 2 15 8 29 14 14 7 25 12 25 12 0 1 1 -18 2 -41z m241 29 c7 -5 10
-13 6 -18 -3 -5 0 -8 7 -7 19 4 29 -89 12 -104 -18 -15 -16 -25 8 -49 11 -11
18 -24 14 -27 -4 -4 -15 3 -25 16 -20 25 -50 30 -50 8 0 -12 -6 -12 -39 2 -25
11 -36 21 -30 27 6 5 13 5 21 -3 7 -7 17 -12 23 -12 15 0 75 59 75 73 0 7 -5
4 -11 -5 -5 -10 -16 -18 -23 -18 -8 0 -21 -10 -30 -22 l-15 -23 -20 23 c-22
25 -33 29 -25 9 4 -10 -7 -14 -41 -14 -25 0 -45 1 -45 2 0 2 7 19 15 39 l15
36 -26 0 c-24 0 -25 3 -19 27 4 16 10 33 15 38 10 12 169 14 188 2z m567 3 c3
-5 -1 -10 -9 -10 -9 0 -16 5 -16 10 0 6 4 10 9 10 6 0 13 -4 16 -10z m40 -20
c3 -5 2 -10 -4 -10 -5 0 -13 5 -16 10 -3 6 -2 10 4 10 5 0 13 -4 16 -10z m110
-60 c3 -6 -1 -7 -9 -4 -18 7 -21 14 -7 14 6 0 13 -4 16 -10z m-280 -20 c3 -6
-1 -7 -9 -4 -18 7 -21 14 -7 14 6 0 13 -4 16 -10z m-710 -280 c47 -151 101
-334 120 -406 18 -72 50 -172 69 -222 20 -50 36 -102 36 -114 0 -13 6 -34 13
-49 8 -14 21 -47 30 -74 l17 -49 -30 29 c-16 16 -30 39 -30 51 0 12 -13 56
-30 97 -16 42 -30 80 -30 86 0 6 -4 11 -10 11 -5 0 -10 12 -10 28 0 15 -13 70
-29 122 l-29 95 -33 0 c-19 -1 -39 5 -45 13 -7 10 -22 12 -58 7 -42 -7 -47
-10 -42 -29 3 -11 6 -28 6 -37 0 -13 9 -14 58 -8 48 6 62 3 88 -14 27 -18 33
-29 38 -76 6 -51 5 -57 -21 -82 -23 -22 -40 -28 -98 -33 -63 -5 -73 -3 -97 17
-15 12 -28 31 -30 42 -2 17 3 21 35 23 21 2 37 -1 37 -7 0 -6 21 -11 50 -11
l50 0 0 41 0 40 -67 -6 c-61 -5 -71 -3 -94 17 -19 17 -28 36 -33 74 -6 46 -4
52 23 78 25 24 42 30 101 35 80 8 96 2 116 -43 8 -19 13 -24 14 -13 0 10 -5
28 -12 40 -25 46 -175 558 -170 583 2 14 6 23 8 22 2 -2 42 -127 89 -278z m72
253 c-15 -16 -17 -16 -17 -1 0 9 6 18 13 21 20 7 22 -2 4 -20z m769 -1 c-14
-14 -17 -14 -14 -2 3 17 20 31 27 24 3 -2 -3 -12 -13 -22z m-948 -78 l20 -71
-47 -13 c-38 -10 -191 -29 -198 -25 -2 1 12 22 30 48 20 29 42 49 59 52 15 4
46 24 70 45 24 21 44 37 44 37 1 -1 11 -34 22 -73z m1227 48 c-3 -3 -11 0 -18
7 -9 10 -8 11 6 5 10 -3 15 -9 12 -12z m-890 -49 c28 -14 56 -30 64 -37 8 -6
23 -11 33 -11 13 0 25 -14 38 -43 l19 -43 -30 22 c-17 11 -33 19 -35 16 -3 -3
4 -10 15 -16 11 -7 28 -25 36 -41 10 -20 23 -30 38 -30 13 0 36 -13 52 -30 22
-23 38 -30 66 -30 30 0 42 -6 59 -30 11 -16 39 -42 62 -57 27 -19 45 -41 54
-68 18 -52 17 -69 -2 -28 -7 18 -28 40 -46 49 -18 9 -46 27 -61 40 -16 13 -39
24 -52 24 -12 0 -29 9 -37 21 -12 19 -87 53 -96 44 -9 -9 10 -24 39 -30 19 -4
34 -16 39 -31 7 -17 17 -24 37 -24 36 0 58 -14 48 -30 -5 -8 8 -26 34 -49 41
-35 42 -38 39 -86 -4 -50 -4 -50 -13 -16 -6 24 -16 37 -37 45 -16 6 -31 21
-35 34 -6 26 -31 42 -65 42 -37 0 -68 27 -68 61 0 27 -2 29 -39 29 -22 0 -43
5 -46 10 -11 17 -33 11 -40 -11 -10 -29 8 -43 57 -44 35 -1 43 -4 43 -20 0
-12 12 -25 28 -33 15 -7 34 -27 43 -45 9 -18 28 -42 42 -55 l27 -24 -25 7
c-21 6 -20 4 8 -14 30 -19 32 -25 32 -76 0 -62 -17 -76 -22 -17 -3 33 -8 39
-45 56 -23 11 -44 28 -46 38 -3 9 -25 27 -50 39 -36 18 -48 31 -67 73 -12 28
-24 46 -27 39 -2 -6 3 -23 13 -37 20 -31 12 -34 -16 -6 -11 11 -27 20 -35 20
-8 0 -17 14 -21 36 -4 24 -14 38 -29 44 -16 6 -26 25 -39 69 -9 34 -21 61 -27
61 -13 0 -11 -21 6 -50 8 -14 14 -36 15 -48 0 -14 14 -37 31 -53 22 -20 30
-35 26 -49 -4 -15 4 -27 29 -46 27 -21 33 -31 28 -49 -5 -21 -1 -25 34 -34 22
-6 43 -19 47 -29 14 -32 22 -92 13 -92 -4 0 -11 14 -15 31 -5 26 -10 30 -30
26 -14 -2 -43 0 -65 6 -40 10 -50 23 -62 77 -3 16 -20 33 -46 48 -26 15 -40
30 -40 43 0 11 5 17 10 14 6 -3 10 1 10 10 0 9 -13 24 -30 33 -23 13 -31 26
-36 60 -8 53 -1 62 25 31 12 -14 20 -19 21 -10 0 7 -11 26 -25 43 -28 34 -31
50 -11 67 15 13 29 54 15 46 -11 -7 -23 40 -15 60 3 9 0 15 -10 15 -18 0 -11
35 14 63 20 23 75 15 147 -20z m950 7 c12 -19 -12 -10 -31 11 -19 22 -19 22 3
10 12 -6 25 -16 28 -21z m-854 -25 c7 5 10 3 8 -4 -6 -17 -9 -17 -46 6 -18 11
-30 23 -26 26 3 4 17 -2 29 -14 13 -12 28 -18 35 -14z m961 -98 c-6 -21 -7
-21 -10 3 -2 14 -9 32 -15 40 -7 9 -3 7 10 -3 14 -13 19 -25 15 -40z m-1229 6
c3 -14 0 -39 -5 -55 -6 -15 -7 -36 -4 -46 5 -14 3 -13 -9 3 -9 11 -20 37 -26
58 -9 33 -8 41 8 53 25 19 30 17 36 -13z m1170 -178 c-3 -9 -8 -14 -10 -11 -3
3 -2 9 2 15 9 16 15 13 8 -4z m-425 -50 c-3 -3 -9 2 -12 12 -6 14 -5 15 5 6 7
-7 10 -15 7 -18z m403 -12 c-8 -15 -10 -15 -11 -2 0 17 10 32 18 25 2 -3 -1
-13 -7 -23z m-519 -76 c5 -10 7 -21 4 -25 -3 -3 -6 0 -6 6 0 7 -5 12 -12 12
-14 0 -58 40 -58 52 0 14 60 -25 72 -45z m-130 -42 c67 -58 78 -87 71 -197
l-6 -88 52 0 c49 0 51 1 51 28 0 16 3 63 6 105 l7 77 -43 0 c-39 0 -42 2 -36
23 3 12 6 28 6 36 0 23 100 5 130 -25 l26 -24 -13 -122 c-12 -114 -15 -125
-40 -146 -25 -21 -35 -23 -87 -18 -32 3 -76 6 -97 6 l-39 0 0 58 c1 34 6 65
15 76 16 21 20 91 9 146 -5 22 -17 39 -40 52 -20 12 -34 28 -34 39 0 10 2 19
4 19 2 0 28 -20 58 -45z m-222 -26 c0 -5 -6 -9 -14 -9 -8 0 -14 9 -13 19 1 15
4 17 14 9 7 -6 13 -14 13 -19z m-172 8 c6 -6 13 -24 17 -39 4 -15 13 -32 21
-39 8 -6 14 -19 14 -28 0 -13 9 -15 45 -13 l45 4 0 -36 0 -36 -45 0 c-45 0
-45 0 -45 -35 l0 -35 90 0 90 0 0 -35 0 -36 -97 3 -96 3 -32 95 c-37 110 -54
240 -31 240 7 0 18 -6 24 -13z m691 -28 c-7 -4 -17 -5 -22 -2 -5 3 -3 9 4 14
7 4 17 5 22 2 5 -3 3 -9 -4 -14z m246 -33 l23 -31 -20 -121 c-19 -114 -22
-122 -50 -139 -45 -26 -157 -13 -192 24 l-25 26 11 124 c12 122 12 123 44 145
30 20 38 21 109 12 69 -8 79 -13 100 -40z m-725 34 c8 -5 11 -12 7 -16 -4 -4
-15 0 -24 9 -18 18 -8 23 17 7z m-622 -17 c28 -16 31 -22 42 -113 6 -52 13
-108 16 -125 7 -49 -28 -79 -111 -93 -63 -10 -72 -9 -101 8 -30 19 -32 26 -53
139 l-23 120 23 30 c17 23 34 32 73 39 78 15 102 14 134 -5z m1504 -27 c4 -6
22 -51 39 -101 18 -49 35 -94 39 -98 7 -7 40 115 40 147 1 29 16 36 54 25 22
-6 36 -15 33 -22 -2 -7 -21 -82 -41 -168 l-37 -156 -38 10 c-36 10 -38 12 -75
119 -24 68 -42 105 -47 97 -4 -7 -13 -51 -20 -97 l-13 -84 -34 6 c-19 3 -36 7
-38 9 -2 2 9 78 24 170 l27 166 40 -6 c22 -3 43 -11 47 -17z m-842 -6 c0 -11
-4 -20 -10 -20 -5 0 -10 9 -10 20 0 11 5 20 10 20 6 0 10 -9 10 -20z m-964
-19 c25 -15 33 -29 41 -72 10 -48 9 -56 -11 -80 -14 -18 -38 -31 -71 -39 -27
-6 -55 -13 -62 -15 -9 -3 -8 -17 3 -57 20 -77 19 -85 -18 -92 -17 -3 -33 -4
-36 -2 -4 5 -81 305 -82 321 0 6 42 20 93 32 116 27 106 26 143 4z m1023 -5
c21 -22 22 -26 7 -52 -20 -39 -75 -96 -86 -89 -4 3 -35 5 -68 6 -59 2 -110 17
-67 20 11 1 26 2 33 2 7 -1 18 11 25 25 6 15 12 28 13 30 1 2 12 -2 24 -8 15
-8 25 -8 34 -1 11 9 15 4 20 -21 10 -49 25 -22 28 50 1 34 5 62 8 62 4 0 17
-11 29 -24z m232 -51 c-1 -46 -7 -75 -17 -85 -26 -26 -39 7 -36 89 4 71 4 72
30 69 25 -3 26 -4 23 -73z m648 41 c-1 -11 -4 -34 -8 -50 -7 -35 -19 -24 -43
39 l-15 41 34 -4 c26 -3 33 -8 32 -26z m-1365 15 c3 -5 -1 -11 -9 -15 -8 -3
-15 0 -15 6 0 7 -5 6 -15 -2 -13 -11 -14 -10 -9 4 7 17 39 22 48 7z m518 -158
l-4 -73 -34 0 c-32 0 -34 2 -34 35 0 27 9 44 38 73 20 21 37 38 38 38 0 -1 -1
-34 -4 -73z m-632 34 c15 -11 19 -17 10 -17 -8 0 -25 -3 -37 -6 -19 -5 -23 -2
-23 19 0 29 13 30 50 4z m110 -21 c0 -2 -7 -6 -15 -10 -8 -3 -15 -1 -15 4 0 6
7 10 15 10 8 0 15 -2 15 -4z m-450 -55 c0 -17 -4 -22 -16 -17 -9 3 -22 6 -30
6 -20 0 -17 17 7 41 17 17 23 19 30 8 5 -8 9 -25 9 -38z m1739 -103 c1 -14 -4
-15 -28 -8 -16 4 -31 6 -34 4 -2 -2 -2 10 1 26 2 17 9 30 14 30 5 0 7 4 4 9
-4 5 -3 17 1 27 5 13 10 7 24 -27 10 -24 18 -52 18 -61z m-1878 50 c-11 -18
-21 -28 -21 -21 0 6 -2 18 -5 25 -4 9 3 19 17 25 32 15 34 9 9 -29z m1505 -28
c34 0 37 -14 7 -41 l-27 -24 19 30 18 30 -21 -19 c-28 -24 -61 -15 -41 12 12
15 12 16 -1 6 -9 -7 -48 -11 -99 -9 -77 2 -85 0 -104 -21 l-20 -23 -31 25
c-27 24 -36 26 -84 20 -34 -4 -51 -3 -47 3 3 6 -7 4 -22 -4 -29 -15 -103 -21
-103 -7 1 16 28 42 44 42 10 0 15 4 11 9 -3 5 -1 12 5 16 6 3 13 -1 16 -10 5
-13 14 -15 43 -10 20 4 41 11 47 16 8 6 17 4 27 -6 11 -11 36 -15 86 -15 58 0
69 -3 65 -15 -4 -8 -1 -15 5 -15 6 0 11 7 11 15 0 10 10 15 33 15 21 1 39 9
52 25 l20 24 34 -34 c19 -20 43 -35 57 -35z m-546 18 c0 -5 -4 -8 -9 -8 -5 0
-16 -6 -24 -14 -17 -18 -81 -7 -85 14 -2 12 10 15 58 15 33 0 60 -3 60 -7z
m735 -36 c-4 -4 -10 -2 -12 5 -2 7 -12 10 -21 7 -9 -3 -6 1 8 10 22 13 25 13
28 0 2 -9 1 -19 -3 -22z m-1223 -132 c9 -58 17 -107 17 -109 1 -2 4 -1 7 2 4
4 14 53 23 109 15 93 19 103 39 106 12 2 22 0 22 -5 0 -4 7 -51 15 -103 8 -52
15 -99 15 -103 0 -5 4 -6 9 -3 4 3 11 30 15 61 3 30 11 77 17 105 10 46 13 50
40 50 17 0 29 -5 29 -13 0 -10 -38 -190 -65 -314 -4 -18 -12 -23 -39 -23 l-34
0 -7 85 c-4 47 -11 87 -15 90 -4 2 -13 -36 -19 -85 l-13 -90 -33 0 c-28 0 -34
4 -39 28 -3 15 -19 90 -36 166 -16 77 -30 144 -30 149 0 4 14 7 32 5 l32 -3
18 -105z m481 82 c26 -27 27 -32 27 -147 0 -115 -1 -120 -27 -147 -23 -24 -34
-28 -83 -28 -49 0 -60 4 -83 28 -26 27 -27 31 -27 148 0 106 2 123 19 138 19
17 20 15 36 -58 9 -41 15 -100 13 -131 l-3 -55 45 0 45 0 0 105 0 105 -32 0
c-20 0 -33 5 -33 13 0 6 -3 22 -6 35 -6 20 -3 22 38 22 35 0 50 -6 71 -28z
m62 12 c-15 -16 -18 -16 -33 0 -15 15 -14 16 17 16 30 0 31 -1 16 -16z m192
-6 c22 -20 23 -29 23 -152 0 -119 -2 -132 -22 -153 -18 -19 -32 -23 -83 -23
-52 0 -65 4 -84 24 -21 22 -22 33 -22 151 0 118 1 129 22 151 19 20 32 24 83
24 48 0 64 -4 83 -22z m252 -2 c21 -22 22 -33 22 -151 0 -118 -1 -129 -22
-151 -20 -22 -31 -24 -106 -24 l-83 0 0 175 0 175 83 0 c75 0 86 -2 106 -24z
m-721 -178 c1 -51 5 -101 8 -111 5 -15 0 -17 -30 -15 -20 1 -36 7 -36 13 1 15
20 98 27 115 8 19 10 29 11 63 1 15 6 27 10 27 4 0 9 -41 10 -92z m152 -23 c0
-27 -4 -35 -19 -35 -13 0 -18 6 -16 23 1 12 3 28 4 35 0 6 8 12 16 12 10 0 15
-11 15 -35z m118 -108 c8 -10 6 -13 -9 -14 -19 -2 -25 8 -12 20 8 9 9 9 21 -6z
m242 -12 c11 -13 8 -15 -15 -15 -23 0 -26 2 -15 15 7 8 14 15 15 15 1 0 8 -7
15 -15z m-690 -5 c0 -5 -5 -10 -11 -10 -5 0 -7 5 -4 10 3 6 8 10 11 10 2 0 4
-4 4 -10z"/>
<path d="M426 1276 c-11 -61 -4 -74 60 -106 69 -35 225 -40 334 -11 41 12 85
23 97 26 12 3 70 25 129 50 59 25 114 45 123 45 13 1 13 2 -2 11 -14 8 -38 2
-110 -29 -126 -55 -206 -80 -316 -99 -106 -18 -190 -9 -262 27 -37 19 -38 22
-41 77 l-3 58 -9 -49z"/>
<path d="M1640 1653 c0 -6 5 -15 11 -18 6 -4 8 -13 5 -20 -3 -8 0 -15 7 -18 6
-2 12 -13 12 -25 0 -12 5 -22 10 -22 6 0 10 8 10 18 0 9 3 22 7 27 9 14 -5 37
-20 33 -6 -2 -18 6 -26 17 -8 11 -16 15 -16 8z"/>
<path d="M2152 1598 c-14 -14 -16 -32 -3 -23 5 3 11 -3 14 -12 2 -10 4 -3 4
15 0 37 1 36 -15 20z"/>
<path d="M1700 1584 c0 -17 17 -36 24 -26 3 5 -1 15 -9 22 -8 7 -15 9 -15 4z"/>
<path d="M2242 1548 c2 -6 10 -14 16 -16 7 -2 10 2 6 12 -7 18 -28 22 -22 4z"/>
<path d="M2240 1504 c0 -8 -4 -13 -9 -9 -13 8 -7 -43 7 -57 13 -13 42 -3 41
14 0 10 -2 10 -6 1 -2 -7 -12 -13 -20 -13 -13 0 -14 8 -9 40 3 22 4 40 1 40
-3 0 -5 -7 -5 -16z"/>
<path d="M2310 1496 c0 -13 -6 -27 -12 -29 -10 -4 -10 -6 0 -6 7 -1 11 -5 7
-10 -3 -5 0 -13 7 -17 7 -4 10 -4 7 0 -4 4 -3 23 1 42 4 19 4 37 -1 40 -5 3
-9 -6 -9 -20z"/>
<path d="M2370 1476 c0 -2 8 -10 18 -17 15 -13 16 -12 3 4 -13 16 -21 21 -21
13z"/>
<path d="M2337 1453 c-4 -3 -7 -34 -6 -67 0 -34 3 -55 6 -48 2 6 9 10 13 7 5
-3 6 -13 3 -22 -6 -15 -5 -16 9 -3 14 13 14 16 0 26 -8 6 -12 16 -8 22 4 7 2
12 -4 12 -13 0 -11 48 3 68 10 13 -4 18 -16 5z"/>
<path d="M2360 1440 c-13 -8 -12 -10 3 -10 9 0 17 5 17 10 0 12 -1 12 -20 0z"/>
<path d="M2305 1399 c-6 -17 -9 -19 -17 -8 -7 10 -8 8 -2 -6 4 -11 7 -30 7
-42 -1 -13 2 -23 7 -23 4 0 6 12 6 28 -1 15 2 35 7 45 5 10 6 21 4 24 -3 2 -8
-5 -12 -18z"/>
<path d="M2325 1310 c-3 -5 -1 -10 4 -10 6 0 11 5 11 10 0 6 -2 10 -4 10 -3 0
-8 -4 -11 -10z"/>
<path d="M2260 1303 c0 -6 8 -18 18 -25 11 -7 21 -20 25 -28 3 -9 6 -3 6 14 1
21 -3 27 -14 22 -8 -3 -19 2 -24 12 -6 9 -11 12 -11 5z"/>
<path d="M2256 1245 c4 -8 11 -15 16 -15 6 0 5 6 -2 15 -7 8 -14 15 -16 15 -2
0 -1 -7 2 -15z"/>
<path d="M2240 1231 c0 -10 29 -36 34 -30 1 2 -6 12 -16 22 -10 9 -18 13 -18
8z"/>
<path d="M2290 1220 c0 -5 5 -10 11 -10 5 0 7 5 4 10 -3 6 -8 10 -11 10 -2 0
-4 -4 -4 -10z"/>
<path d="M1970 1185 c0 -15 18 -40 24 -34 3 3 -1 14 -9 25 -8 10 -14 15 -15 9z"/>
<path d="M1231 1708 c-1 -20 -6 -48 -12 -61 -8 -17 -7 -35 2 -68 6 -24 14 -37
16 -29 3 8 7 22 10 30 8 23 5 102 -6 135 l-9 30 -1 -37z"/>
<path d="M1382 1711 c4 -22 58 -33 90 -18 37 16 35 25 -4 31 -56 7 -89 2 -86
-13z"/>
<path d="M1060 1579 c-19 -16 -39 -29 -46 -29 -14 0 -64 -38 -64 -49 0 -17
136 2 167 23 1 1 -3 20 -10 43 l-12 41 -35 -29z m35 -29 c4 -6 3 -9 -2 -8 -4
1 -19 -4 -32 -11 -19 -11 -22 -11 -18 1 2 7 10 12 16 11 6 -2 11 2 11 7 0 13
17 13 25 0z m-65 -26 c0 -8 -5 -12 -10 -9 -6 4 -8 11 -5 16 9 14 15 11 15 -7z"/>
<path d="M1347 1569 c-21 -24 -13 -45 23 -62 25 -13 29 -12 45 9 10 13 22 21
27 18 5 -3 3 -13 -5 -22 -13 -15 -12 -21 4 -47 20 -32 26 -27 8 8 -10 22 -10
22 7 2 9 -11 22 -35 30 -52 8 -18 18 -33 23 -33 9 0 -33 88 -49 104 -16 16
-12 26 10 26 14 0 20 -7 20 -22 0 -32 23 -73 40 -74 42 -3 67 -35 38 -47 -8
-3 -6 -6 5 -6 10 -1 17 -9 17 -21 0 -11 5 -20 10 -20 6 0 10 -7 10 -15 0 -15
38 -40 48 -31 3 3 0 6 -7 6 -6 0 -16 11 -21 25 -5 14 -13 25 -17 25 -5 0 -9
11 -9 25 -2 27 -64 106 -64 81 0 -10 -6 -13 -16 -9 -8 3 -13 12 -10 19 3 7 1
16 -4 19 -6 4 -10 17 -10 29 0 13 -8 30 -17 37 -11 10 -14 10 -9 2 15 -25 -17
-12 -45 18 -18 19 -27 24 -22 13 7 -18 6 -18 -18 -2 -24 16 -27 15 -42 -3z
m59 -37 c-8 -9 -22 -11 -35 -7 -32 10 -25 21 14 21 30 0 33 -2 21 -14z"/>
<path d="M1330 1500 c0 -5 5 -10 10 -10 6 0 10 -10 10 -21 0 -18 3 -19 14 -10
13 11 12 15 -2 32 -18 21 -32 25 -32 9z"/>
<path d="M1370 1435 c0 -11 5 -27 10 -35 8 -12 10 -12 10 5 0 11 -5 27 -10 35
-8 12 -10 12 -10 -5z"/>
<path d="M1410 1431 c0 -5 13 -19 30 -31 24 -17 28 -25 20 -40 -8 -15 -4 -23
21 -44 35 -29 54 -34 45 -10 -3 9 -6 18 -6 20 0 3 -11 9 -24 14 -17 6 -23 14
-19 28 2 10 -2 25 -11 33 -45 41 -56 47 -56 30z"/>
<path d="M2160 905 c-6 -59 -11 -108 -9 -110 2 -2 24 -5 49 -6 l45 -4 16 103
c8 57 13 104 10 106 -3 2 -27 6 -52 10 l-46 7 -13 -106z m75 7 c-9 -90 -13
-102 -35 -102 -17 0 -20 7 -20 49 0 28 4 52 10 56 5 3 7 12 4 19 -6 16 24 49
37 40 6 -3 7 -30 4 -62z"/>
<path d="M887 987 c-43 -8 -48 -12 -43 -31 2 -11 10 -59 17 -104 l13 -84 45 7
c25 4 47 8 49 10 4 4 -25 206 -30 209 -2 1 -25 -2 -51 -7z m31 -39 c5 -7 13
-43 17 -80 6 -64 5 -68 -14 -68 -24 0 -36 32 -46 123 -3 31 -1 37 14 37 10 0
23 -6 29 -12z"/>
<path d="M577 928 c-27 -7 -37 -14 -33 -25 3 -8 6 -24 6 -35 0 -19 4 -20 48
-13 61 9 61 9 53 47 -8 37 -19 41 -74 26z m38 -38 c3 -5 -3 -10 -14 -10 -12 0
-21 5 -21 10 0 6 6 10 14 10 8 0 18 -4 21 -10z"/>
<path d="M1729 713 c-13 -16 -12 -17 4 -4 16 13 21 21 13 21 -2 0 -10 -8 -17
-17z"/>
<path d="M2015 710 c-3 -5 -1 -10 4 -10 6 0 11 5 11 10 0 6 -2 10 -4 10 -3 0
-8 -4 -11 -10z"/>
<path d="M1710 495 l0 -105 45 0 45 0 0 105 0 105 -45 0 -45 0 0 -105z m56 -3
c-1 -63 -4 -77 -18 -80 -14 -3 -16 7 -16 65 0 83 5 104 22 97 9 -4 13 -27 12
-82z"/>
<path d="M1960 495 l0 -105 45 0 45 0 0 105 0 105 -45 0 -45 0 0 -105z m70 63
c0 -4 -6 -8 -12 -9 -10 0 -10 -2 0 -6 6 -2 12 -14 12 -24 0 -13 -4 -18 -12
-13 -10 6 -10 4 0 -7 6 -7 12 -30 12 -52 0 -31 -3 -38 -17 -35 -15 3 -18 16
-21 80 -3 72 -2 77 18 75 11 -1 20 -5 20 -9z"/>
<path d="M750 2352 c0 -6 5 -14 10 -17 22 -14 41 -69 55 -165 23 -151 47 -195
117 -209 42 -9 41 -14 -30 -160 l-57 -116 -75 -37 c-41 -21 -119 -59 -174 -84
-150 -69 -214 -144 -250 -289 -28 -113 -27 -115 33 -157 55 -38 141 -76 196
-84 16 -3 -3 6 -43 20 -77 26 -179 86 -189 112 -8 22 15 132 42 190 28 64 85
127 143 161 25 15 97 51 160 80 174 80 172 78 238 226 46 104 54 131 43 138
-8 5 -19 9 -26 9 -60 1 -99 63 -114 183 -13 102 -34 169 -59 192 -11 10 -20
13 -20 7z"/>
<path d="M668 1043 c6 -2 18 -2 25 0 6 3 1 5 -13 5 -14 0 -19 -2 -12 -5z"/>
</g>
</svg>
